<svg width="46" height="46" viewBox="0 0 46 46" fill="none" xmlns="http://www.w3.org/2000/svg">
<g clip-path="url(#clip0_57_57)">
<mask id="mask0_57_57" style="mask-type:luminance" maskUnits="userSpaceOnUse" x="0" y="0" width="46" height="46">
<path d="M0 0H46V46H0V0Z" fill="white"/>
</mask>
<g mask="url(#mask0_57_57)">
<path d="M15.0776 23.2209C20.8709 23.2209 21.382 27.1399 21.382 29.9391C21.382 23.594 24.4491 23.2209 28.0273 23.2209C21.382 23.2209 21.382 18.9286 21.382 16.3159C21.382 22.2877 18.1446 23.2209 15.0776 23.2209Z" fill="#F4F4F4" stroke="#F4F4F4"/>
<path d="M46 22.6694V23.7646H28V22.6694H46Z" fill="#F4F4F4"/>
<path d="M36.063 18.461C35.0487 14.3151 32.7172 10.7015 29.4878 8.26996C26.2584 5.83841 22.343 4.74842 18.4454 5.19597C14.5479 5.64353 10.9239 7.59926 8.22522 10.7115C5.52652 13.8237 3.93012 17.8884 3.72302 22.1745C3.51592 26.4607 4.71172 30.6871 7.09542 34.094C9.47902 37.5009 12.8942 39.8647 16.7269 40.7602C20.5595 41.6559 24.5582 41.0246 28.0039 38.98C31.4496 36.9353 34.1162 33.6115 35.5244 29.606" stroke="#F4F4F4" stroke-width="1.5" stroke-linecap="round"/>
</g>
</g>
<defs>
<clipPath id="clip0_57_57">
<rect width="46" height="46" fill="white" transform="matrix(-1 0 0 1 46 0)"/>
</clipPath>
</defs>
</svg>
