<svg width="31" height="23" viewBox="0 0 31 23" fill="none" xmlns="http://www.w3.org/2000/svg">
<path d="M27.6741 0.159668C29.1975 0.159668 30.4866 1.44873 30.4866 2.97217V19.8472C30.4866 21.4292 29.1975 22.6597 27.6741 22.6597H3.29907C1.71704 22.6597 0.486572 21.4292 0.486572 19.8472V2.97217C0.486572 1.44873 1.71704 0.159668 3.29907 0.159668H27.6741ZM27.6741 2.97217H3.29907V5.37451C4.58813 6.48779 6.69751 8.12842 11.1506 11.644C12.1467 12.4058 14.0803 14.2808 15.4866 14.2222C16.8342 14.2808 18.7678 12.4058 19.7639 11.644C24.217 8.12842 26.3264 6.48779 27.6741 5.37451V2.97217ZM3.29907 19.8472H27.6741V9.00732C26.3264 10.062 24.3928 11.5854 21.5217 13.8706C20.1741 14.8667 17.9475 17.0933 15.4866 17.0347C12.967 17.0933 10.6819 14.8667 9.39282 13.8706C6.52173 11.5854 4.58813 10.062 3.29907 9.00732V19.8472Z" fill="white"/>
</svg>
