<svg width="122" height="119" viewBox="0 0 122 119" fill="none" xmlns="http://www.w3.org/2000/svg">
<path fill-rule="evenodd" clip-rule="evenodd" d="M60.9995 0C27.3148 0 0 27.3088 0 60.9995C0 87.9517 17.4782 110.816 41.7152 118.883C44.7627 119.448 45.8819 117.559 45.8819 115.948C45.8819 114.494 45.8254 109.689 45.7991 104.591C28.829 108.281 25.2481 97.3943 25.2481 97.3943C22.4733 90.3437 18.4752 88.4689 18.4752 88.4689C12.9397 84.6829 18.8924 84.7617 18.8924 84.7617C25.0168 85.191 28.2431 91.0477 28.2431 91.0477C33.6837 100.371 42.5132 97.6762 45.9941 96.1186C46.5416 92.176 48.1224 89.484 49.8669 87.9608C36.3181 86.4203 22.0743 81.1889 22.0743 57.8156C22.0743 51.1558 24.4582 45.7143 28.3603 41.4414C27.7259 39.906 25.638 33.7018 28.9502 25.2996C28.9502 25.2996 34.0716 23.6602 45.7284 31.5523C50.5952 30.1997 55.8145 29.5199 60.9995 29.4967C66.1814 29.5199 71.4038 30.1977 76.2797 31.5503C87.9224 23.6582 93.0377 25.2976 93.0377 25.2976C96.358 33.6988 94.27 39.904 93.6367 41.4394C97.5479 45.7122 99.9146 51.1538 99.9146 57.8136C99.9146 81.2424 85.6445 86.4001 72.0614 87.9113C74.2503 89.8043 76.1999 93.5175 76.1999 99.2075C76.1999 107.369 76.1292 113.938 76.1292 115.947C76.1292 117.571 77.2282 119.473 80.3192 118.874C104.542 110.799 122 87.9416 122 60.9995C121.999 27.3108 94.6872 0 60.9995 0Z" fill="white"/>
<path d="M23.1036 87.5809C22.9693 87.884 22.4925 87.9749 22.0581 87.7678C21.6137 87.5698 21.3662 87.1567 21.5096 86.8526C21.6409 86.5395 22.1187 86.4536 22.5602 86.6627C23.0046 86.8617 23.2572 87.2789 23.1026 87.5819L23.1036 87.5809ZM25.5744 90.3376C25.2845 90.6073 24.7158 90.482 24.3299 90.0547C23.9299 89.6305 23.8551 89.0618 24.1511 88.788C24.4521 88.5193 25.0037 88.6466 25.4037 89.0709C25.8017 89.5012 25.8804 90.0648 25.5754 90.3386L25.5744 90.3376ZM27.9805 93.8498C27.6068 94.1104 26.9946 93.8669 26.6168 93.3245C26.2431 92.7811 26.2431 92.1295 26.6269 91.8699C27.0037 91.6093 27.6068 91.8447 27.9906 92.3821C28.3623 92.9326 28.3623 93.5851 27.9805 93.8498ZM31.2745 97.2448C30.9412 97.6135 30.228 97.5145 29.7068 97.0125C29.1745 96.5205 29.026 95.8205 29.3603 95.4528C29.6997 95.0831 30.4159 95.1862 30.9402 95.6852C31.4725 96.1761 31.6331 96.8771 31.2765 97.2438L31.2745 97.2448ZM35.8201 99.2156C35.6716 99.6933 34.9867 99.9105 34.2948 99.7065C33.6049 99.4974 33.1534 98.9388 33.2948 98.4559C33.4362 97.9741 34.1261 97.7489 34.8221 97.966C35.512 98.1741 35.9635 98.7297 35.8201 99.2156ZM40.8131 99.5802C40.8303 100.083 40.2444 100.499 39.5202 100.51C38.7899 100.527 38.1989 100.119 38.1919 99.6236C38.1919 99.1156 38.7656 98.7044 39.4949 98.6903C40.2192 98.6772 40.8142 99.0812 40.8142 99.5792L40.8131 99.5802ZM45.4577 98.7903C45.5446 99.2802 45.0405 99.7843 44.3203 99.9186C43.6132 100.05 42.9566 99.7449 42.8657 99.259C42.7788 98.756 43.292 98.2519 43.9991 98.1216C44.7203 97.9973 45.3668 98.2923 45.4577 98.7903Z" fill="white"/>
</svg>
