<svg width="31" height="31" viewBox="0 0 31 31" fill="none" xmlns="http://www.w3.org/2000/svg">
<g id="Component 4">
<path id="Vector" d="M24.4807 30.0396C23.1526 30.0396 21.7854 29.854 20.3792 29.4829C18.9729 29.1118 17.5374 28.5552 16.0725 27.813C15.4084 27.4614 14.7444 27.0806 14.0803 26.6704C13.4163 26.2603 12.762 25.8159 12.1174 25.3374C11.4729 24.8589 10.8381 24.3462 10.2131 23.7993C9.58813 23.272 8.98267 22.7153 8.39673 22.1294C7.81079 21.5435 7.25415 20.938 6.72681 20.313C6.19946 19.688 5.69653 19.0532 5.21802 18.4087C4.7395 17.7642 4.29517 17.1099 3.88501 16.4458C3.45532 15.7817 3.07446 15.1177 2.74243 14.4536C2.00024 12.9888 1.4436 11.5532 1.07251 10.147C0.701416 8.74072 0.515869 7.37354 0.515869 6.04541C0.515869 5.18604 0.808838 4.38037 1.39478 3.62842C1.98071 2.87646 2.44946 2.34424 2.80103 2.03174C3.28931 1.56299 3.88501 1.11377 4.58813 0.684082C5.29126 0.254395 5.92603 0.0395508 6.49243 0.0395508C6.76587 0.0395508 7.07349 0.132324 7.41528 0.317871C7.75708 0.503418 8.14282 0.80127 8.57251 1.21143C8.88501 1.50439 9.21704 1.84619 9.5686 2.23682C9.92017 2.62744 10.2815 3.05713 10.6526 3.52588C10.8674 3.79932 11.3508 4.49268 12.1028 5.60596C12.8547 6.71924 13.2307 7.61768 13.2307 8.30127C13.2307 8.84814 12.967 9.33154 12.4397 9.75146C11.9124 10.1714 11.3069 10.5962 10.6233 11.0259C10.3694 11.1821 10.1155 11.3384 9.86157 11.4946C9.60767 11.6509 9.38306 11.8071 9.18774 11.9634C8.9729 12.1392 8.83618 12.271 8.77759 12.3589C8.71899 12.4468 8.6897 12.5005 8.6897 12.52C9.04126 13.3989 9.55884 14.3169 10.2424 15.2739C10.926 16.231 11.6975 17.1343 12.5569 17.9839C13.4163 18.8335 14.3147 19.6001 15.2522 20.2837C16.2092 20.9673 17.1272 21.4849 18.0061 21.8364C18.0256 21.8364 18.0793 21.8071 18.1672 21.7485C18.2551 21.6899 18.387 21.5532 18.5627 21.3384C18.719 21.1431 18.8752 20.9185 19.0315 20.6646C19.1877 20.4106 19.344 20.1567 19.5002 19.9028C19.9299 19.2192 20.3547 18.6138 20.7747 18.0864C21.1946 17.5591 21.678 17.2954 22.2249 17.2954C22.9084 17.2954 23.8069 17.6714 24.9202 18.4233C26.0334 19.1753 26.7268 19.6587 27.0002 19.8735C27.469 20.2446 27.8987 20.606 28.2893 20.9575C28.6799 21.3091 29.0217 21.6411 29.3147 21.9536C29.7249 22.3833 30.0227 22.769 30.2083 23.1108C30.3938 23.4526 30.4866 23.7603 30.4866 24.0337C30.4866 24.6001 30.2717 25.2349 29.842 25.938C29.4124 26.6411 28.9631 27.2368 28.4944 27.7251C28.1819 28.0767 27.6497 28.5503 26.8977 29.146C26.1458 29.7417 25.3401 30.0396 24.4807 30.0396ZM6.46313 1.53369C6.26782 1.53369 5.92603 1.66553 5.43774 1.9292C4.94946 2.19287 4.41235 2.58838 3.82642 3.11572C3.26001 3.64307 2.81567 4.16553 2.49341 4.68311C2.17114 5.20068 2.01001 5.65479 2.01001 6.04541C2.01001 8.56494 2.70337 11.1528 4.09009 13.8091C5.49634 16.4653 7.28833 18.8872 9.46606 21.0747C11.6438 23.2622 14.0608 25.0493 16.717 26.436C19.3733 27.8423 21.9612 28.5454 24.4807 28.5454C24.8713 28.5454 25.3254 28.3794 25.843 28.0474C26.3606 27.7153 26.8831 27.2759 27.4104 26.729C27.9377 26.1235 28.3333 25.5767 28.5969 25.0884C28.8606 24.6001 28.9924 24.2583 28.9924 24.063C28.9729 23.9067 28.7385 23.5649 28.2893 23.0376C27.8401 22.5103 27.0784 21.8267 26.0042 20.9868C25.0667 20.2837 24.2561 19.7417 23.5725 19.3608C22.8889 18.98 22.4495 18.7896 22.2542 18.7896C22.2346 18.7896 22.1809 18.8188 22.093 18.8774C22.0051 18.936 21.8733 19.0728 21.6975 19.2876C21.5608 19.4829 21.4143 19.7026 21.2581 19.9468C21.1018 20.1909 20.9456 20.4399 20.7893 20.6938C20.3792 21.3774 19.9543 21.9878 19.5149 22.5249C19.0754 23.062 18.5725 23.3306 18.0061 23.3306C17.9084 23.3306 17.8157 23.3257 17.7278 23.3159C17.6399 23.3062 17.5471 23.2817 17.4495 23.2427C16.4729 22.8521 15.467 22.2856 14.4319 21.5435C13.3967 20.8013 12.4153 19.9663 11.4875 19.0386C10.5598 18.1108 9.72485 17.1294 8.98267 16.0942C8.24048 15.0591 7.67407 14.0532 7.28345 13.0767C7.18579 12.8423 7.16626 12.5444 7.22485 12.1831C7.28345 11.8218 7.54712 11.436 8.01587 11.0259C8.25024 10.7915 8.52856 10.5669 8.85083 10.3521C9.1731 10.1372 9.50024 9.93213 9.83228 9.73682C10.0862 9.58057 10.3352 9.42432 10.5793 9.26807C10.8235 9.11182 11.0432 8.96533 11.2385 8.82861C11.4534 8.65283 11.5901 8.521 11.6487 8.43311C11.7073 8.34521 11.7366 8.2915 11.7366 8.27197C11.7366 8.07666 11.5461 7.63721 11.1653 6.95361C10.7844 6.27002 10.2424 5.45947 9.53931 4.52197C8.69946 3.44775 8.01587 2.68604 7.48853 2.23682C6.96118 1.7876 6.61938 1.55322 6.46313 1.53369Z" fill="white"/>
</g>
</svg>
