<svg width="652" height="552" viewBox="0 0 652 552" fill="none" xmlns="http://www.w3.org/2000/svg">
<path d="M6.46999 429.96C9.03999 419.03 11.29 409.58 13.95 399.13C25.8 352.46 41 306.92 61.18 263.17C80.02 222.33 102.58 183.68 132.07 149.52C158.72 118.65 188.9 91.48 221.43 66.89C250.03 45.27 279.8 25.4 311.12 7.96001C330.28 -2.70999 323.39 -2.60998 342.21 7.87001C387.9 33.32 430.53 63.21 469.87 97.66C503.61 127.2 533.61 160.15 557.42 198.35C576.03 228.2 591.62 259.58 604.78 292.23C611.68 309.36 618.26 326.59 623.92 344.13C631.05 366.26 637.41 388.64 642.56 411.34C643.59 415.87 652.21 451.48 651.19 459.52C651.19 459.52 651.27 466.16 646.21 468.29L641.42 470.58L616.34 481.67C581.17 496.78 545.2 509.72 508.51 520.56C464.79 533.48 420.33 543.12 375.02 548.51C366.96 549.47 358.83 550.97 350.85 551.19C331.81 551.72 312.79 552.43 293.64 549.9C270.11 546.79 246.53 544.15 223.19 539.72C196.24 534.62 169.69 527.88 143.42 520.11C112.33 510.91 81.77 500.11 51.78 487.78C36.41 481.46 9.62999 469.26 6.23999 467.51C-2.76001 463.66 0.639994 453.11 0.639994 453.11M280.15 427.27C300.13 429.01 319.94 432.01 340.22 430.44C363.94 428.6 387.52 425.86 410.91 421.78C433.83 417.78 456.52 412.55 478.87 405.94C487.42 403.41 487.41 403.58 486.93 394.94C485.95 377.02 484.65 359.11 484.22 341.18C483.83 325.05 482.54 308.97 482.25 292.87C481.74 265.08 479.39 237.37 479.18 209.58C479.14 203.91 479.18 198.23 479.18 191.41C470.56 197.34 463.47 202.25 456.34 207.11C414.54 235.61 372.71 264.08 330.94 292.63C328.07 294.59 325.86 294.79 322.87 292.69C311.7 284.84 300.32 277.29 289.05 269.59C255.22 246.5 221.41 223.37 187.54 200.34C183.91 197.88 180.65 194.71 176.13 193.2C173.61 203.79 174.56 214.32 173.83 224.68C172.42 244.74 172.25 264.89 171.57 285C171.19 296.15 171.27 307.33 170.26 318.42C169.59 325.75 169.85 333.04 169.48 340.35C168.51 359.6 167.63 378.85 166.53 398.09C166.28 402.43 168.01 404.28 172.08 405.36C189.41 409.95 206.72 414.58 224.32 418.11C242.57 421.77 260.86 424.98 280.16 427.28M405.84 78.21C414.45 79.01 418.71 84.26 417.26 93.36C416.04 100.99 416.47 108.64 416.16 116.26C415.23 138.71 415.03 161.19 414.52 183.65C414.49 184.8 414.18 185.95 414.05 187.1C413.16 195.14 413.75 203.15 413.53 212.26C419.67 208.18 424.67 204.91 429.61 201.56C446.55 190.05 463.41 178.42 480.42 167.02C487.18 162.49 495.86 166.53 496.48 174.47C497.27 184.57 497.77 194.71 498.16 204.84C498.74 219.8 498.98 234.77 499.61 249.73C500.84 278.79 502.29 307.84 503.54 336.9C504.03 348.2 504.16 359.51 504.57 370.81C504.88 379.59 505.37 388.35 505.78 397.18C508.73 397.47 511.03 396.37 513.37 395.64C543.29 386.4 572.44 375.06 601.27 362.89C607.78 360.14 608.03 359.39 605.67 352.33C593.83 316.94 580.18 282.31 563.14 249.05C542.21 208.19 516.98 170.36 484.52 137.68C463.47 116.49 440.45 97.56 416.51 79.73C389.09 59.32 360.36 40.92 330.65 24.04C327.99 22.53 325.93 22.5 323.37 24.01C318.36 26.98 313.12 29.56 308.13 32.56C268.79 56.15 231.28 82.29 196.45 112.24C162.96 141.04 134.46 174 111.52 211.73C84.06 256.9 63.18 305.03 47.27 355.38C46.19 358.8 46.65 360.48 50.1 361.84C62.01 366.55 73.79 371.58 85.65 376.41C104.45 384.07 123.7 390.45 143.05 396.54C146.39 397.59 148.05 397.11 148.03 393.13C147.98 381.99 149.3 370.91 149.68 359.8C150.32 341.03 150.57 322.25 151.79 303.49C152.76 288.57 153.33 273.58 153.66 258.65C154.27 231.54 156.21 204.49 156.77 177.39C156.87 172.33 158.74 168.55 162.92 166.2C167.19 163.8 171.26 165.37 175.04 167.98C192.3 179.89 209.51 191.88 226.89 203.6C230.92 206.32 234.68 209.63 239.84 211.65C240.01 205.42 239.3 199.79 239.37 194.21C239.83 159.07 236.73 124.02 236.75 88.9C236.75 83.89 239.15 81.11 243.06 79.12C246.62 77.3 250.02 77.93 253.37 80.2C276.82 96.04 300.35 111.76 323.79 127.63C326.13 129.21 327.76 129.08 330.02 127.54C347.35 115.71 364.65 103.84 382.19 92.33C389.66 87.43 396.6 81.59 405.86 78.2M75.39 475.78C81.61 478.16 87.76 480.71 94.05 482.89C117.45 490.99 140.96 498.74 164.79 505.55C189.26 512.54 214.05 518.15 239.01 522.98C252.53 525.6 266.27 527.15 279.95 528.86C297.43 531.04 314.96 532.92 332.63 532.29C357.74 531.39 382.57 527.98 407.36 524.05C425.61 521.15 443.65 517.25 461.53 512.83C494.15 504.76 526.26 494.88 557.83 483.32C581.12 474.79 604.12 465.58 626.76 455.44C629.72 454.11 631.03 452.9 630.4 449.15C627.39 431.09 622.81 413.4 618.26 395.71C616.93 390.55 616.07 385.08 613.11 380.08C576.14 396.57 538.39 410.05 499.92 421.44C474.58 428.95 448.93 435.25 422.93 440.14C399.89 444.47 376.69 447.65 353.37 449.58C334.31 451.16 315.2 450.85 296.05 449.09C274.18 447.08 252.48 444.17 230.92 440.15C203.79 435.09 177.11 428.27 150.66 420.3C121.33 411.46 92.32 401.87 64.1 389.94C56.2 386.6 48.2 383.52 40.04 380.24C39.44 382.01 38.91 383.4 38.49 384.82C32.07 406.16 27.5 427.95 22.93 449.73C22.25 452.97 23.74 454.14 26.37 455.27C42.4 462.2 58.41 469.2 75.42 475.79M391.81 109.75C371.47 123.34 351.13 136.93 330.8 150.53C327.97 152.42 325.34 152.26 322.49 150.33C304.58 138.21 286.62 126.17 268.66 114.13C264.63 111.43 260.53 108.84 255.86 105.82C256.15 109.31 256.61 111.77 256.52 114.2C256 127.85 257.04 141.47 257.65 155.08C258.05 164.06 258.06 173.05 258.37 182.02C258.85 195.78 258.86 209.55 258.88 223.32C258.88 225.22 259.73 225.93 261.02 226.81C281.63 240.88 302.26 254.91 322.75 269.14C325.73 271.21 327.85 271.15 330.73 269.16C351.14 255.09 371.65 241.15 392.13 227.17C393.51 226.23 394.56 225.36 394.58 223.25C394.69 206.47 395 189.7 395.74 172.92C396.65 152.32 396.66 131.69 396.99 111.06C397.01 109.7 397.64 108.07 396.04 106.81C394.8 107.66 393.57 108.49 391.8 109.75H391.81Z" fill="white"/>
</svg>
