<svg width="46" height="46" viewBox="0 0 46 46" fill="none" xmlns="http://www.w3.org/2000/svg">
<g clip-path="url(#clip0_4_247)">
<path d="M30.9224 23.2206C25.1291 23.2206 24.618 27.1396 24.618 29.9388C24.618 23.5937 21.5509 23.2206 17.9727 23.2206C24.618 23.2206 24.618 18.9283 24.618 16.3156C24.618 22.2874 27.8554 23.2206 30.9224 23.2206Z" fill="#F4F4F4" stroke="#F4F4F4"/>
<path d="M0 22.6694V23.7646H18V22.6694H0Z" fill="#F4F4F4"/>
<path d="M9.93713 18.4608C10.9514 14.3149 13.2829 10.7013 16.5123 8.26972C19.7417 5.83817 23.6571 4.74818 27.5547 5.19573C31.4522 5.64329 35.0762 7.59902 37.7749 10.7113C40.4736 13.8235 42.07 17.8882 42.2771 22.1743C42.4842 26.4605 41.2884 30.6869 38.9047 34.0938C36.5211 37.5007 33.1059 39.8645 29.2732 40.76C25.4406 41.6557 21.4419 41.0244 17.9962 38.9798C14.5505 36.9351 11.8839 33.6113 10.4757 29.6058" stroke="#F4F4F4" stroke-width="1.5" stroke-linecap="round"/>
</g>
<defs>
<clipPath id="clip0_4_247">
<rect width="46" height="46" fill="white"/>
</clipPath>
</defs>
</svg>
