<svg width="41" height="41" viewBox="0 0 41 41" fill="none" xmlns="http://www.w3.org/2000/svg">
<path d="M3.98633 32.4928V15.8262C3.98633 13.9852 5.47871 12.4928 7.31966 12.4928H8.15299C9.20218 12.4928 10.1901 11.9989 10.8197 11.1595L14.5197 6.22617C14.7085 5.97437 15.0049 5.82617 15.3197 5.82617H25.9863C26.3012 5.82617 26.5975 5.97437 26.7863 6.22617L30.4863 11.1595C31.1158 11.9989 32.1038 12.4928 33.153 12.4928H33.9863C35.8273 12.4928 37.3197 13.9852 37.3197 15.8262V32.4928C37.3197 34.3338 35.8273 35.8262 33.9863 35.8262H7.31966C5.47871 35.8262 3.98633 34.3338 3.98633 32.4928Z" stroke="white" stroke-width="1.5" stroke-linecap="round" stroke-linejoin="round"/>
<path d="M20.653 29.1595C24.3348 29.1595 27.3197 26.1747 27.3197 22.4928C27.3197 18.811 24.3348 15.8262 20.653 15.8262C16.9711 15.8262 13.9863 18.811 13.9863 22.4928C13.9863 26.1747 16.9711 29.1595 20.653 29.1595Z" stroke="white" stroke-width="1.5" stroke-linecap="round" stroke-linejoin="round"/>
</svg>
