<svg width="31" height="31" viewBox="0 0 31 31" fill="none" xmlns="http://www.w3.org/2000/svg">
<g id="Component 4">
<path id="Vector" d="M15.4866 6.77734C14.6077 6.77734 13.7874 6.94336 13.0256 7.27539C12.2639 7.60742 11.5999 8.05664 11.0334 8.62305C10.467 9.18945 10.0178 9.85352 9.68579 10.6152C9.35376 11.377 9.18774 12.1875 9.18774 13.0469C9.18774 13.9062 9.35376 14.7168 9.68579 15.4785C10.0178 16.2402 10.467 16.9092 11.0334 17.4854C11.5999 18.0615 12.2639 18.5059 13.0256 18.8184C13.7874 19.1504 14.6077 19.3164 15.4866 19.3164C16.3459 19.3164 17.1565 19.1602 17.9182 18.8477C18.6799 18.5156 19.344 18.0615 19.9104 17.4854C20.4768 16.9092 20.926 16.2402 21.2581 15.4785C21.5901 14.7168 21.7561 13.9062 21.7561 13.0469C21.7561 12.1875 21.5901 11.377 21.2581 10.6152C20.926 9.85352 20.4768 9.18945 19.9104 8.62305C19.344 8.05664 18.6799 7.60742 17.9182 7.27539C17.1565 6.94336 16.3459 6.77734 15.4866 6.77734ZM15.4866 17.8223C14.1584 17.8223 13.0305 17.3535 12.1028 16.416C11.175 15.4785 10.7112 14.3555 10.7112 13.0469C10.7112 11.7383 11.175 10.6152 12.1028 9.67773C13.0305 8.74023 14.1584 8.27148 15.4866 8.27148C16.7952 8.27148 17.9133 8.74023 18.8411 9.67773C19.7688 10.6152 20.2327 11.7383 20.2327 13.0469C20.2327 14.3555 19.7688 15.4785 18.8411 16.416C17.9133 17.3535 16.7952 17.8223 15.4866 17.8223ZM15.4866 0.800781C15.4084 0.800781 15.3352 0.800781 15.2668 0.800781C15.1985 0.800781 15.1252 0.800781 15.0471 0.800781C13.5432 0.859375 12.1174 1.17188 10.7698 1.73828C9.42212 2.32422 8.22583 3.10547 7.18091 4.08203C6.13599 5.05859 5.28149 6.20117 4.61743 7.50977C3.95337 8.81836 3.55298 10.2246 3.41626 11.7285C3.35767 12.3145 3.34302 12.9004 3.37231 13.4863C3.40161 14.0723 3.46509 14.6387 3.56274 15.1855C3.56274 15.1855 3.57251 15.2197 3.59204 15.2881C3.61157 15.3564 3.6311 15.459 3.65063 15.5957C3.74829 16.0059 3.86548 16.4111 4.0022 16.8115C4.13892 17.2119 4.29517 17.5977 4.47095 17.9688C4.78345 18.7109 5.1936 19.541 5.70142 20.459C6.22876 21.3965 6.88794 22.3926 7.67896 23.4473C8.46997 24.502 9.41235 25.6152 10.5061 26.7871C11.5999 27.959 12.8889 29.1602 14.3733 30.3906C14.5295 30.5273 14.7053 30.6299 14.9006 30.6982C15.0959 30.7666 15.2913 30.8008 15.4866 30.8008C15.7014 30.8008 15.9016 30.7666 16.0872 30.6982C16.2727 30.6299 16.4436 30.5273 16.5999 30.3906C18.0842 29.1602 19.3733 27.959 20.467 26.7871C21.5803 25.6152 22.5276 24.502 23.3088 23.4473C24.0901 22.3926 24.7444 21.4062 25.2717 20.4883C25.7795 19.5703 26.1897 18.7402 26.5022 17.998C26.678 17.6074 26.8342 17.2119 26.9709 16.8115C27.1077 16.4111 27.2249 16.0059 27.3225 15.5957C27.342 15.5176 27.3567 15.4492 27.3665 15.3906C27.3762 15.332 27.3909 15.2734 27.4104 15.2148C27.469 14.8242 27.5178 14.4385 27.5569 14.0576C27.5959 13.6768 27.6155 13.291 27.6155 12.9004C27.6155 11.2402 27.2932 9.67773 26.6487 8.21289C26.0042 6.72852 25.135 5.43945 24.0413 4.3457C22.9475 3.25195 21.6682 2.38281 20.2034 1.73828C18.719 1.11328 17.1467 0.800781 15.4866 0.800781ZM25.887 14.9512C25.887 14.9512 25.8821 14.9805 25.8723 15.0391C25.8625 15.0977 25.8479 15.166 25.8284 15.2441C25.7502 15.6152 25.6526 15.9766 25.5354 16.3281C25.4182 16.6797 25.2815 17.0312 25.1252 17.3828C24.8127 18.0859 24.4124 18.877 23.9241 19.7559C23.4358 20.6348 22.8157 21.5771 22.0637 22.583C21.3118 23.5889 20.4084 24.6582 19.3538 25.791C18.2991 26.9043 17.0588 28.0469 15.6331 29.2188C15.6135 29.2383 15.5891 29.2529 15.5598 29.2627C15.5305 29.2725 15.5061 29.2773 15.4866 29.2773C15.467 29.2773 15.4426 29.2725 15.4133 29.2627C15.384 29.2529 15.3596 29.2383 15.3401 29.2188C13.9143 28.0469 12.6741 26.9043 11.6194 25.791C10.5647 24.6582 9.65649 23.5889 8.89478 22.583C8.13306 21.5771 7.50806 20.6348 7.01978 19.7559C6.53149 18.8574 6.14087 18.0566 5.8479 17.3535C5.69165 17.0215 5.55493 16.6797 5.43774 16.3281C5.32056 15.9766 5.21313 15.6152 5.11548 15.2441C5.09595 15.166 5.0813 15.1025 5.07153 15.0537C5.06177 15.0049 5.05688 14.9805 5.05688 14.9805C5.05688 14.9609 5.05688 14.9512 5.05688 14.9512C5.05688 14.9512 5.05688 14.9414 5.05688 14.9219C4.95923 14.4336 4.90063 13.9307 4.8811 13.4131C4.86157 12.8955 4.87134 12.3828 4.9104 11.875C5.04712 10.5664 5.39868 9.33594 5.96509 8.18359C6.55103 7.03125 7.2981 6.03027 8.2063 5.18066C9.1145 4.33105 10.1643 3.65234 11.3557 3.14453C12.5276 2.63672 13.7776 2.35352 15.1057 2.29492C16.6096 2.25586 18.0256 2.5 19.3538 3.02734C20.7014 3.57422 21.8733 4.33105 22.8694 5.29785C23.8655 6.26465 24.6467 7.40234 25.2131 8.71094C25.7991 10.0195 26.092 11.4258 26.092 12.9297C26.092 13.2617 26.0774 13.5938 26.0481 13.9258C26.0188 14.2578 25.9651 14.5996 25.887 14.9512Z" fill="white"/>
</g>
</svg>
