<svg width="122" height="102" viewBox="0 0 122 102" fill="none" xmlns="http://www.w3.org/2000/svg">
<path d="M111.599 0.897544C111.599 0.897544 122.885 -3.50317 121.944 7.1843C121.631 11.5851 118.809 26.9876 116.615 43.6476L109.091 92.9986C109.091 92.9986 108.464 100.228 102.821 101.486C97.178 102.743 88.7138 97.0851 87.1461 95.8276C85.8921 94.8847 63.6341 80.7394 55.7964 73.824C53.6019 71.9379 51.0939 68.1658 56.1099 63.7651L89.0272 32.3315C92.7892 28.5594 96.5511 19.7579 80.8762 30.4454L36.9866 60.3075C36.9866 60.3075 31.9707 63.4508 22.566 60.6218L2.18851 54.3351C2.18851 54.3351 -5.33544 49.62 7.51797 44.9047C38.8678 30.1308 77.4279 15.0426 111.599 0.897544Z" fill="white"/>
</svg>
