<svg width="41" height="41" viewBox="0 0 41 41" fill="none" xmlns="http://www.w3.org/2000/svg">
<path d="M20.27 4.15948C11.0652 4.15948 3.60333 11.6214 3.60333 20.8262C3.60333 30.0308 11.0652 37.4928 20.27 37.4928C29.4747 37.4928 36.9367 30.0308 36.9367 20.8262C36.9367 11.6214 29.4747 4.15948 20.27 4.15948Z" stroke="white" stroke-width="1.5" stroke-linecap="round" stroke-linejoin="round"/>
<path d="M13.6033 36.106V24.1595L20.27 12.4929L26.9367 24.1595V36.106" stroke="white" stroke-width="1.5" stroke-linecap="round" stroke-linejoin="round"/>
<path d="M13.6033 24.1595C13.6033 24.1595 15.4813 25.8262 16.9367 25.8262C18.392 25.8262 20.27 24.1595 20.27 24.1595C20.27 24.1595 22.148 25.8262 23.6033 25.8262C25.0587 25.8262 26.9367 24.1595 26.9367 24.1595" stroke="white" stroke-width="1.5" stroke-linecap="round" stroke-linejoin="round"/>
</svg>
