<svg width="41" height="41" viewBox="0 0 41 41" fill="none" xmlns="http://www.w3.org/2000/svg">
<path d="M20.887 24.9929C26.4099 24.9929 30.887 20.5157 30.887 14.9929C30.887 9.47001 26.4099 4.99286 20.887 4.99286C15.3642 4.99286 10.887 9.47001 10.887 14.9929C10.887 20.5157 15.3642 24.9929 20.887 24.9929Z" stroke="white" stroke-width="1.5" stroke-linecap="round" stroke-linejoin="round"/>
<path d="M27.5537 36.6595C33.0765 36.6595 37.5537 32.1823 37.5537 26.6595C37.5537 21.1367 33.0765 16.6595 27.5537 16.6595C22.0309 16.6595 17.5537 21.1367 17.5537 26.6595C17.5537 32.1823 22.0309 36.6595 27.5537 36.6595Z" stroke="white" stroke-width="1.5" stroke-linecap="round" stroke-linejoin="round"/>
<path d="M14.2203 36.6595C19.7432 36.6595 24.2203 32.1823 24.2203 26.6595C24.2203 21.1367 19.7432 16.6595 14.2203 16.6595C8.69749 16.6595 4.22034 21.1367 4.22034 26.6595C4.22034 32.1823 8.69749 36.6595 14.2203 36.6595Z" stroke="white" stroke-width="1.5" stroke-linecap="round" stroke-linejoin="round"/>
</svg>
